<svg width="120" height="121" fill="none" xmlns="http://www.w3.org/2000/svg"><path d="M30.033 10.46a4 4 0 00-4 4v68.43l10.165-11.065h46.9v-23.48a4 4 0 014-4h10.501V14.46a4 4 0 00-4-4H30.033z" fill="#FFC60A"/><path d="M4.218 82.192v7.507c0-1.658 3.964-3.227 6.92-4.113V84.2l-.908-6.169c-2.847.588-6.012 2.052-6.012 4.16z" fill="#002270"/><path d="M4.222 81.875v8.404c-1.29 11.893 32.01 8.007 37.46 6.903 5.442-1.102 13.395-2.415 21.332-.729.07.002-.07.003 0 .004v-8.51c-10.212-1.412-13.315-.59-21.332.871-8.017 1.46-38.465 5.75-37.46-6.943zM4.222 81.654v.221c.006-.073-.008-.147 0-.22z" fill="#336DF4"/><path d="M18.296 111.649v-8.158c-3.553-.393-9.319-.628-11.764-3.753v8.158c2.451 3.132 8.028 3.34 11.764 3.753z" fill="#33D6C0"/><path d="M43.402 25.875a.5.5 0 01.5-.5h38.695a.5.5 0 010 1H43.902a.5.5 0 01-.5-.5zM59.697 36.875a.5.5 0 01.5-.5h22.4a.5.5 0 010 1h-22.4a.5.5 0 01-.5-.5zM31.311 110.607v-6.094c6.559.704 13.796.032 20.848-.624l1.214-.112c7.584-.7 14.886-1.286 21.134-.174v5.64c-6.696-1.015-14.012-.299-21.295.469l-.84.089c-7.18.76-14.326 1.517-21.06.806zm0-7.099a45.514 45.514 0 01-1-.122v8.112c7.107.892 14.666.092 22.121-.697 7.67-.813 15.23-1.613 22.075-.546.335.052.668.109 1 .17v-7.649c-6.919-1.417-15.12-.655-23.4.114-7.129.662-14.316 1.329-20.796.618z" fill="#002270"/><path d="M112 44.344a4 4 0 014 4V88.04a4 4 0 01-4 4H87.097a4 4 0 01-4-4V48.344v23.549H93.6a4 4 0 004-4v-23.55H112z" fill="#33D6C0"/><path d="M30.313 21.889v-.002l-.001-.005-.003-.02-.01-.07-.045-.26c-.04-.22-.103-.53-.194-.9-.182-.735-.48-1.713-.944-2.658-.46-.94-1.104-1.887-1.996-2.515-.913-.643-2.057-.932-3.439-.588-.97.242-1.786.597-2.468 1.124-.684.529-1.21 1.21-1.623 2.07-.164.34-.311.71-.445 1.11a3.174 3.174 0 00-.281-.515c-.439-.645-1.084-.974-1.802-.834-.67.131-1.274.648-1.752 1.385-.485.748-.881 1.78-1.115 3.07-1.375 7.569-2.401 14.3-3.193 22.522L8.627 31.85a.493.493 0 00-.008-.034c-.29-1.132-.644-1.977-1.15-2.455a1.54 1.54 0 00-.946-.438c-.35-.028-.695.067-1.022.225a.473.473 0 00-.039.02c-.799.475-1.09 1.393-1.2 2.204-.112.829-.055 1.711-.017 2.305.113 3.221 1.606 14.194 3.15 25.106.443 3.133.89 6.264 1.312 9.211 1.04 7.283 1.922 13.444 2.178 15.75l-3.71 23.26a.5.5 0 00.988.158l3.72-23.327a.495.495 0 00.003-.133c-.248-2.27-1.14-8.513-2.194-15.88-.42-2.941-.867-6.061-1.307-9.18-1.55-10.959-3.032-21.864-3.14-25.007l-.002-.015c-.039-.607-.087-1.396.01-2.114.099-.728.327-1.233.703-1.468.216-.101.373-.127.487-.118.106.009.216.051.34.169.28.264.578.853.863 1.959l2.9 15.814c.02.111.077.207.155.278-.066.775-.13 1.565-.192 2.37a.5.5 0 00.997.078c.845-10.949 1.998-18.91 3.673-28.13.217-1.192.574-2.092.97-2.702.404-.623.81-.89 1.105-.948.247-.049.521.03.783.414.268.395.493 1.083.545 2.128a4.832 4.832 0 00-.139.6c-.054.303-.11.686-.166 1.134-.113.897-.23 2.073-.35 3.428-.24 2.71-.489 6.15-.712 9.532a1162.99 1162.99 0 00-.785 13.006l-.016.293.5.028-.5-.027a.5.5 0 00.998.06v-.006l1.605-23.713c.351-3.42.745-5.674 1.474-7.185.357-.744.791-1.295 1.334-1.714.409-.316.894-.567 1.481-.765.042 6.069.266 11 .51 15.807l.09 1.76c.225 4.379.45 8.755.552 13.913a.5.5 0 101-.02c-.103-5.174-.328-9.567-.553-13.945l-.09-1.758c-.247-4.869-.473-9.852-.51-16.013.912-.138 1.64.09 2.239.511.7.493 1.25 1.274 1.674 2.138.422.86.699 1.763.87 2.458a13.97 13.97 0 01.223 1.075l.005.033.004.027.002.014v.005c1.452 10.474 2.216 19.162 3.082 29.021.19 2.17.386 4.399.595 6.715a.5.5 0 00.91.24l2.744-3.97c1.095-1.584 2.245-3.25 3.287-4.753a835.92 835.92 0 012.623-3.769c.708-1.01 1.164-1.647 1.265-1.764a2.16 2.16 0 01.583-.409c.301-.15.562-.201.73-.162.069.016.129.048.184.113.06.07.134.202.184.44.103.49.085 1.326-.213 2.683-.293 1.334-1.388 4.387-2.891 8.263-1.496 3.86-3.378 8.49-5.224 12.95a1475.427 1475.427 0 01-7.071 16.78l-.159.37.46.198-.46-.197a.505.505 0 00-.035.125l-1.782 12.114a.5.5 0 10.989.146l1.772-12.05.134-.312.452-1.055a1542.122 1542.122 0 006.624-15.737c1.847-4.463 3.732-9.101 5.232-12.97 1.493-3.85 2.623-6.985 2.936-8.41.308-1.403.361-2.405.215-3.102-.074-.355-.205-.654-.402-.885a1.327 1.327 0 00-.721-.439c-.507-.117-1.028.057-1.4.242-.378.188-.72.447-.896.653-.142.165-.638.862-1.325 1.84-.699.997-1.619 2.32-2.626 3.774-1.059 1.529-2.2 3.18-3.285 4.75-.687.996-1.353 1.959-1.961 2.838-.163-1.823-.319-3.594-.471-5.33-.867-9.86-1.633-18.577-3.088-29.078z" fill="#002270"/><path d="M36.517 71.826c.52-1.243 1.052-2.524 1.588-3.82 1.847-4.462 3.732-9.1 5.232-12.97 1.493-3.85 2.623-6.984 2.936-8.41.308-1.402.361-2.404.215-3.101-.074-.355-.205-.654-.402-.886a1.326 1.326 0 00-.721-.438c-.507-.117-1.028.056-1.4.241-.378.189-.72.448-.896.654-.142.165-.638.861-1.325 1.84-.699.996-1.619 2.32-2.626 3.774-1.057 1.526-2.196 3.174-3.28 4.742l-.008.013-1.958 2.833a3410.28 3410.28 0 01-.471-5.33c-.867-9.861-1.633-18.578-3.088-29.079l-.001-.007-.003-.019-.01-.07-.045-.26c-.04-.22-.103-.531-.194-.9-.182-.735-.48-1.713-.944-2.658-.46-.94-1.104-1.887-1.996-2.516a4.03 4.03 0 00-1.087-.547v1.07c.18.082.35.181.51.295.7.493 1.252 1.273 1.675 2.138.422.86.699 1.763.87 2.458a13.953 13.953 0 01.223 1.075l.005.033.004.027.002.014v.004c1.452 10.475 2.216 19.163 3.082 29.021v.005c.19 2.17.386 4.396.595 6.71a.5.5 0 00.91.24l2.744-3.969.007-.01c1.092-1.581 2.24-3.244 3.28-4.744a841.689 841.689 0 012.623-3.768c.708-1.01 1.164-1.647 1.265-1.765.067-.077.29-.262.583-.408.301-.15.562-.201.73-.163.069.016.129.049.184.114.06.07.134.202.184.44.103.49.085 1.326-.213 2.683-.293 1.334-1.388 4.386-2.891 8.263-1.496 3.859-3.378 8.489-5.224 12.95-.815 1.97-1.623 3.906-2.387 5.728l1.404-1.527h.32z" fill="#002270"/></svg>
